<?xml version="1.0" encoding="UTF-8"?>
<svg version="1.1" xmlns="http://www.w3.org/2000/svg" width="500" height="500">
<path d="M0 0 C165 0 330 0 500 0 C500 165 500 330 500 500 C335 500 170 500 0 500 C0 335 0 170 0 0 Z " fill="#A86BE1" transform="translate(0,0)"/>
<path d="M0 0 C77.22 0 154.44 0 234 0 C234 81.84 234 163.68 234 248 C233.67 248 233.34 248 233 248 C232.95512451 247.05906494 232.91024902 246.11812988 232.86401367 245.14868164 C231.88674786 220.89935014 231.88674786 220.89935014 228 197 C227.85304688 196.33452148 227.70609375 195.66904297 227.5546875 194.98339844 C225.72348078 186.70029178 223.34067119 178.82797318 220.15234375 170.94921875 C219.11550163 168.29560588 218.27105948 165.67759272 217.5 162.9375 C208.87385744 133.56198748 189.9872935 105.75380113 169.3125 83.49609375 C167.26342081 81.28433428 165.27800519 79.03577724 163.3125 76.75 C157.31516924 69.88994416 150.83602794 63.9860916 143.68408203 58.33349609 C142.50669171 57.40121051 141.33351649 56.46358799 140.16357422 55.52197266 C119.39917509 38.84697912 96.58121369 26.85480139 72.01904297 16.828125 C70.36263731 16.1487383 68.71344114 15.45179916 67.06640625 14.75 C55.48504378 9.88164402 43.30655951 7.29374491 31 5 C29.6696875 4.72349609 29.6696875 4.72349609 28.3125 4.44140625 C18.9804792 2.56042081 9.46897887 1.86549667 0 1 C0 0.67 0 0.34 0 0 Z " fill="#FEFEFE" transform="translate(266,0)"/>
<path d="M0 0 C0.33 0 0.66 0 1 0 C1 81.84 1 163.68 1 248 C-75.56 248 -152.12 248 -231 248 C-231 247.67 -231 247.34 -231 247 C-230.34217529 246.93006836 -229.68435059 246.86013672 -229.0065918 246.78808594 C-182.34350302 241.73991806 -137.6417604 226.76037614 -100 198 C-99.43796875 197.57928223 -98.8759375 197.15856445 -98.296875 196.72509766 C-70.2526215 175.71559356 -48.09327182 149.53572872 -31 119 C-30.5369043 118.1754834 -30.07380859 117.3509668 -29.59667969 116.50146484 C-24.627303 107.57304634 -20.21530587 98.78938015 -17.015625 89.06640625 C-16.08800841 86.26571771 -15.02763816 83.58886075 -13.875 80.875 C-11.63721384 75.39783791 -10.35850175 69.74498934 -9 64 C-8.11740554 60.85575722 -7.21453385 57.71938797 -6.28125 54.58984375 C-2.59766989 41.78940288 -1.583775 28.91555591 -0.875 15.6875 C-0.78833292 14.15686852 -0.7010966 12.62626916 -0.61328125 11.09570312 C-0.40231358 7.39748123 -0.19897163 3.69888905 0 0 Z " fill="#FEFEFE" transform="translate(499,252)"/>
<path d="M0 0 C0.33 0 0.66 0 1 0 C1.10022461 0.85005615 1.20044922 1.7001123 1.30371094 2.57592773 C6.45144011 45.69837331 18.16374155 88.30151386 44 124 C44.43538086 124.60376465 44.87076172 125.2075293 45.31933594 125.82958984 C59.11152616 144.86129777 74.35979164 162.54919836 93 177 C93.95777344 177.77472656 94.91554688 178.54945313 95.90234375 179.34765625 C135.13384086 210.56464828 181.70624591 226.50674303 231 232 C231 232.33 231 232.66 231 233 C154.77 233 78.54 233 0 233 C0 156.11 0 79.22 0 0 Z " fill="#FEFEFE" transform="translate(0,267)"/>
<path d="M0 0 C76.89 0 153.78 0 233 0 C233 0.33 233 0.66 233 1 C232.33282959 1.06469482 231.66565918 1.12938965 230.97827148 1.19604492 C166.58025638 7.60668216 105.77900514 35.336079 62.69921875 84.6328125 C60.45487987 87.41317795 58.2201222 90.20023999 56 93 C55.20464844 93.99 54.40929688 94.98 53.58984375 96 C22.39403801 135.5509423 5.67718833 182.15101915 1 232 C0.67 232 0.34 232 0 232 C0 155.44 0 78.88 0 0 Z " fill="#FEFEFE" transform="translate(0,0)"/>
<path d="M0 0 C22.44 0 44.88 0 68 0 C68 7.26 68 14.52 68 22 C57.44 22 46.88 22 36 22 C36 42.46 36 62.92 36 84 C34.68 84 33.36 84 32 84 C32 63.21 32 42.42 32 21 C21.44 21 10.88 21 0 21 C0 14.07 0 7.14 0 0 Z " fill="#FAFAFE" transform="translate(83,214)"/>
<path d="M0 0 C1.32 0 2.64 0 4 0 C4 7.92 4 15.84 4 24 C5.815 24.04125 7.63 24.0825 9.5 24.125 C22.64528734 25.17032241 34.02499487 30.4499956 44 39 C44.65355469 39.55429688 45.30710938 40.10859375 45.98046875 40.6796875 C51.30262626 45.59064079 53.90645152 50.56728096 58 57 C58.33 38.19 58.66 19.38 59 0 C60.65 0 62.3 0 64 0 C64 27.72 64 55.44 64 84 C62.35 84 60.7 84 59 84 C58.91363281 83.05640625 58.82726562 82.1128125 58.73828125 81.140625 C56.99174113 65.1814144 51.15744563 51.09331015 38.3984375 40.62890625 C27.41405981 33.16883215 17.20323316 30.32032332 4 29 C4 47.15 4 65.3 4 84 C2.35 84 0.7 84 -1 84 C-1.02312312 73.19541915 -1.04091493 62.39084414 -1.05181217 51.58624363 C-1.05704107 46.5697753 -1.06413883 41.55332385 -1.07543945 36.53686523 C-1.0862681 31.69990306 -1.09227679 26.86295716 -1.09487724 22.02598381 C-1.09673153 20.17631715 -1.10035222 18.32665143 -1.10573006 16.47699165 C-1.1129402 13.89552986 -1.11399095 11.31413618 -1.11352539 8.73266602 C-1.11712067 7.96014999 -1.12071594 7.18763397 -1.12442017 6.39170837 C-1.11405216 1.11405216 -1.11405216 1.11405216 0 0 Z " fill="#F5F1FC" transform="translate(174,214)"/>
<path d="M0 0 C5.55080963 4.43131861 9.24674506 9.65885525 10.984375 16.609375 C11.109375 19.984375 11.109375 19.984375 10.984375 22.609375 C9.334375 22.609375 7.684375 22.609375 5.984375 22.609375 C5.89800781 21.96871094 5.81164062 21.32804687 5.72265625 20.66796875 C4.74383862 14.64240335 3.63184065 9.78904324 -1.015625 5.609375 C-9.29848546 -0.21834742 -17.04800564 -1.59197292 -27.015625 -0.390625 C-32.51429957 0.72654087 -37.04262276 2.51951976 -41.015625 6.609375 C-44.07178005 11.2462999 -44.76253066 15.20783988 -44.015625 20.609375 C-42.79892458 24.74615643 -41.05383779 26.92011653 -37.515625 29.234375 C-30.62227105 32.76015604 -22.75648872 33.73295641 -15.22119141 35.18164062 C-4.55669682 37.24984901 3.66066334 40.25028174 9.984375 49.609375 C11.86186619 55.24184857 11.91461185 61.31545972 9.484375 66.796875 C5.55065186 73.6635154 -0.63418342 78.10247031 -8.015625 80.609375 C-18.36805963 83.08419944 -29.02432796 82.30077984 -38.45703125 77.3203125 C-44.89032718 73.35646954 -50.05560588 68.09308435 -52.015625 60.609375 C-52.16324986 57.60088224 -52.13362509 54.61837729 -52.015625 51.609375 C-50.695625 51.609375 -49.375625 51.609375 -48.015625 51.609375 C-47.88027344 52.3828125 -47.74492187 53.15625 -47.60546875 53.953125 C-46.04693657 61.49380763 -43.95806409 66.57726701 -38.015625 71.609375 C-29.5820699 76.73565359 -19.60806175 76.57927452 -10.015625 75.609375 C-4.28797177 74.1272495 -0.34208158 71.61750444 3.109375 66.796875 C5.93034151 61.50382476 5.47997497 57.18649486 4.359375 51.359375 C1.8296479 46.2999208 -2.91806667 44.47079574 -8.015625 42.609375 C-9.95949291 42.12644637 -11.91396014 41.6849774 -13.875 41.27734375 C-14.99132812 41.03564453 -16.10765625 40.79394531 -17.2578125 40.54492188 C-19.57903235 40.04991787 -21.90195189 39.56281218 -24.2265625 39.08398438 C-34.08925908 36.92439392 -42.10519654 34.10561592 -48.015625 25.609375 C-49.79628449 20.26739654 -50.0158511 13.89927531 -48.3671875 8.4765625 C-45.31834774 2.66552603 -40.16028692 -1.77392742 -34.140625 -4.265625 C-22.8634456 -7.49596627 -9.73141399 -6.71392128 0 0 Z " fill="#FBF2FB" transform="translate(404.015625,218.390625)"/>
<path d="M0 0 C2.87029869 1.79393668 4.49131638 2.98263276 6 6 C6.86994754 13.50857635 4.32274007 18.05860452 0.5625 24.4375 C0.04623047 25.34693359 -0.47003906 26.25636719 -1.00195312 27.19335938 C-4.74511378 33.74511378 -4.74511378 33.74511378 -6 35 C-7.66617115 35.04063832 -9.33388095 35.042721 -11 35 C-9.23570801 30.02790438 -6.6060834 25.56561939 -4 21 C-5.0725 20.938125 -6.145 20.87625 -7.25 20.8125 C-11 20 -11 20 -13.4375 18 C-15.56302872 13.91898486 -15.83418522 10.51441415 -15 6 C-11.10231905 -0.23628951 -6.98983895 -0.90541955 0 0 Z " fill="#FDFBFE" transform="translate(299,215)"/>
</svg>
